<?xml version="1.0" encoding="UTF-8"?>
<svg enable-background="new" version="1.1" viewBox="0 0 300.01 299.99" xmlns="http://www.w3.org/2000/svg"><text x="86.722862" y="119.88541" fill="#ffffff" font-family="'-apple-system', BlinkMacSystemFont, 'Segoe UI', Roboto, Oxygen-Sans, Ubuntu, Cantarell, 'Helvetica Neue', sans-serif" font-size="19.863px" font-weight="300" letter-spacing="0px" stroke-width="2.4828" word-spacing="0px" style="line-height:1.25" xml:space="preserve"><tspan x="86.722862" y="138.27203" font-family="'-apple-system', BlinkMacSystemFont, 'Segoe UI', Roboto, Oxygen-Sans, Ubuntu, Cantarell, 'Helvetica Neue', sans-serif" font-size="13.242px" font-weight="300" stroke-width="2.4828" style="line-height:0"/></text><text transform="rotate(90.258)" x="138.64062" y="-254.93665" enable-background="new" fill="#ffffff" fill-opacity=".50087" font-family="'-apple-system', BlinkMacSystemFont, 'Segoe UI', Roboto, Oxygen-Sans, Ubuntu, Cantarell, 'Helvetica Neue', sans-serif" font-size="32.33px" font-weight="300" letter-spacing="0px" stroke-width="6.0619" word-spacing="0px" style="line-height:1.25" xml:space="preserve"><tspan x="138.64062" y="-254.93665" fill="#ffffff" fill-opacity=".50087" font-family="'-apple-system', BlinkMacSystemFont, 'Segoe UI', Roboto, Oxygen-Sans, Ubuntu, Cantarell, 'Helvetica Neue', sans-serif" font-weight="300" stroke-width="6.0619">E</tspan></text><path d="m163.01 1.2086-1.0677 12.12a137.28 137.28 0 0 1 0.021 0.0024zm25.643 4.5186-3.1797 11.838a137.28 137.28 0 0 1 0.0206 0.0064zm-51.679-4.5149 1.0564 12.188a137.28 137.28 0 0 1 0.0215-0.0021zm76.145 13.416-5.1643 11.059a137.28 137.28 0 0 1 0.0202 0.01056zm-101.79-8.888 3.1306 11.71a137.28 137.28 0 0 1 0.0177-0.0067zm124.34 21.901-6.9538 9.9152a137.28 137.28 0 0 1 0.0202 0.01056zm-148.8-12.991 5.1496 11.06a137.28 137.28 0 0 1 0.01768-0.0067zm168.75 29.722-8.6534 8.6409a137.28 137.28 0 0 1 0.0155 0.01434zm-191.3-16.699 7.0231 10.048a137.28 137.28 0 0 1 0.01854-0.0151zm208.04 36.645-10.044 7.0235a137.28 137.28 0 0 1 0.0109 0.01811zm-227.99-19.907 8.6409 8.6534a137.28 137.28 0 0 1 0.01434-0.01553zm241.01 42.453-11.059 5.1456a137.28 137.28 0 0 1 0.0105 0.02232zm-257.73-22.503 9.9152 6.9538a137.28 137.28 0 0 1 0.01056-0.02017zm266.64 46.967-11.715 3.1301a137.28 137.28 0 0 1 6e-3 0.0219zm-279.66-24.416 11.062 5.1689a137.28 137.28 0 0 1 0.01056-0.02017zm284.2 50.059-12.188 1.0564a137.28 137.28 0 0 1 2e-3 0.0215zm-293.09-25.588 11.842 3.1801a137.28 137.28 0 0 1 0.0064-0.0206zm293.09 51.623-12.121-1.0678a137.28 137.28 0 0 1-2e-3 0.021zm-285.49-24.936-12.123-1.0472 12.121 1.0678a137.28 137.28 0 0 1 0.0024-0.021zm269.13 47.4a137.28 137.28 0 0 1-6e-3 0.0206l11.848 3.1601zm-269.06-23.489-12.187 1.0814 12.188-1.0564a137.28 137.28 0 0 1-0.0017-0.025zm260.94 45.971a137.28 137.28 0 0 1-0.0106 0.0202l11.073 5.1494zm-256.89-22.399-11.709 3.1516 11.715-3.1301a137.28 137.28 0 0 1-0.0063-0.0219zm245.04 43.166a137.28 137.28 0 0 1-0.0106 0.0202l9.9257 6.9343zm-236.77-20.717-11.05 5.1675 11.059-5.1456a137.28 137.28 0 0 1-0.01047-0.0223zm221.31 38.966a137.28 137.28 0 0 1-0.0143 0.0155l8.655 8.6383zm-209.31-18.294-10.033 7.0413 10.044-7.0235a137.28 137.28 0 0 1-0.0109-0.0181zm190.98 33.639a137.28 137.28 0 0 1-0.0186 0.0151l7.0414 10.033zm-175.64-15.311-8.6343 8.6556 8.6492-8.6413a137.28 137.28 0 0 1-0.01553-0.0143zm154.97 27.317a137.28 137.28 0 0 1-0.0223 0.0105l5.1712 11.054zm-136.72-11.853-6.9343 9.9257 6.9538-9.9152a137.28 137.28 0 0 1-0.02017-0.0106zm114.27 20.116a137.28 137.28 0 0 1-0.0177 7e-3l3.148 11.704zm-93.512-8.2468-5.1448 11.069 5.1643-11.059a137.28 137.28 0 0 1-0.02017-0.0106zm69.944 12.297a137.28 137.28 0 0 1-0.0215 2e-3l1.0778 12.183zm-47.464-4.171-3.1596 11.844 3.1802-11.842a137.28 137.28 0 0 1-0.021-2e-3zm23.551 4.2383a137.28 137.28 0 0 1-0.0215 2e-3l-1.0472 12.123z" enable-background="new" fill="#fffbfb" stroke="#fff" stroke-linecap="round" stroke-linejoin="round" stroke-opacity=".1993" stroke-width="1.057"/><path d="m201.08 9.6237-5.689 15.594a132.85 132.85 0 0 1 0.0269 0.01125zm23.6 11.002-8.3523 14.446a132.85 132.85 0 0 1 0.0256 0.01324zm-48.749-17.737-2.9034 16.408a132.85 132.85 0 0 1 0.0286 0.0072zm70.078 32.667-10.7 12.735a132.85 132.85 0 0 1 0.0191 0.02108zm-96.017-34.93-0.0137 16.553a132.85 132.85 0 0 1 0.0318-1e-3zm114.43 53.337-12.678 10.625a132.85 132.85 0 0 1 0.0191 0.02108zm-140.37-51.063 2.8774 16.379a132.85 132.85 0 0 1 0.028-0.0035zm155.31 72.385-14.431 8.3182a132.85 132.85 0 0 1 0.0166 0.02444zm-180.46-65.642 5.6946 15.683a132.85 132.85 0 0 1 0.0309-0.01171zm191.47 89.242-15.683 5.6946a132.85 132.85 0 0 1 0.0121 0.0276zm-215.06-78.234 8.3182 14.431a132.85 132.85 0 0 1 0.02885-0.01618zm221.8 103.38-16.373 2.875a132.85 132.85 0 0 1 4e-3 0.028zm-243.13-88.445 10.625 12.677a132.85 132.85 0 0 1 0.02108-0.0191zm245.41 114.38-16.554-0.01a132.85 132.85 0 0 1 4e-3 0.0278zm-263.83-95.969 12.738 10.706a132.85 132.85 0 0 1 0.01732-0.02394zm261.56 121.91-16.408-2.9034a132.85 132.85 0 0 1-7e-3 0.0286zm-276.49-100.57 14.446 8.3523a132.85 132.85 0 0 1 0.01324-0.02563zm269.75 125.72-15.594-5.689a132.85 132.85 0 0 1-7e-3 0.0286zm-265.14-96.464-15.6-5.6608 15.594 5.689a132.85 132.85 0 0 1 0.0072-0.0286zm239.69 111.71a132.85 132.85 0 0 1-0.0132 0.0256l14.461 8.327zm-245.61-89.344-16.414-2.8749 16.408 2.9034a132.85 132.85 0 0 1 0.0072-0.0286zm232.39 108.33a132.85 132.85 0 0 1-0.0173 0.0239l12.756 10.682zm-234.53-85.28-16.552 0.0178 16.554 0.01a132.85 132.85 0 0 1-0.0035-0.0278zm218.23 101.72a132.85 132.85 0 0 1-0.0211 0.0191l10.645 12.659zm-216.14-78.676-16.372 2.9066 16.377-2.8736a132.85 132.85 0 0 1-0.0051-0.0332zm197.11 91.857a132.85 132.85 0 0 1-0.0234 0.0146l8.341 14.418zm-191.07-69.523-15.671 5.7215 15.683-5.6946a132.85 132.85 0 0 1-0.01208-0.0274zm170.1 79.274a132.85 132.85 0 0 1-0.0276 0.0121l5.7237 15.676zm-160.35-58.301-14.414 8.3427 14.431-8.3182a132.85 132.85 0 0 1-0.01663-0.0244zm138.02 64.354a132.85 132.85 0 0 1-0.028 4e-3l2.9051 16.376zm-124.84-45.33-12.659 10.645 12.678-10.625a132.85 132.85 0 0 1-0.0191-0.0211zm101.78 47.427a132.85 132.85 0 0 1-0.028 4e-3l0.0178 16.552zm-85.347-31.132-10.682 12.756 10.7-12.735a132.85 132.85 0 0 1-0.0191-0.0211zm62.304 29.016a132.85 132.85 0 0 1-0.0286-7e-3l-2.8773 16.409zm-43.329-15.791-8.327 14.461 8.3523-14.446a132.85 132.85 0 0 1-0.02563-0.0133zm20.964 9.8651a132.85 132.85 0 0 1-0.0284-7e-3l-5.6622 15.604z" enable-background="new" fill="#fffbfb" stroke="#fff" stroke-linecap="round" stroke-linejoin="round" stroke-opacity=".20459" stroke-width="1.268"/><g transform="translate(.0056137 8.5416e-5)" fill="#fff" fill-opacity=".50087" font-family="'-apple-system', BlinkMacSystemFont, 'Segoe UI', Roboto, Oxygen-Sans, Ubuntu, Cantarell, 'Helvetica Neue', sans-serif" font-size="32.33px" letter-spacing="0px" stroke-width="6.0619" word-spacing="0px"><g font-weight="300"><text transform="rotate(-90.85)" x="-150.44466" y="44.046944" enable-background="new" style="line-height:1.25" xml:space="preserve"><tspan x="-150.44466" y="44.046944" fill="#ffffff" fill-opacity=".50087" font-family="'-apple-system', BlinkMacSystemFont, 'Segoe UI', Roboto, Oxygen-Sans, Ubuntu, Cantarell, 'Helvetica Neue', sans-serif" font-weight="300" stroke-width="6.0619" text-align="center" text-anchor="middle">W</tspan></text><text transform="rotate(179.44)" x="-157.13184" y="-256.0676" enable-background="new" style="line-height:1.25" xml:space="preserve"><tspan x="-157.13184" y="-256.0676" fill="#ffffff" fill-opacity=".50087" font-family="'-apple-system', BlinkMacSystemFont, 'Segoe UI', Roboto, Oxygen-Sans, Ubuntu, Cantarell, 'Helvetica Neue', sans-serif" font-weight="300" stroke-width="6.0619">S</tspan></text><text transform="rotate(209.43)" x="-219.30507" y="-163.44031" enable-background="new" style="line-height:1.25" xml:space="preserve"><tspan x="-219.30507" y="-163.44031" fill="#ffffff" fill-opacity=".50087" font-family="'-apple-system', BlinkMacSystemFont, 'Segoe UI', Roboto, Oxygen-Sans, Ubuntu, Cantarell, 'Helvetica Neue', sans-serif" font-weight="300" letter-spacing="-4.196px" stroke-width="6.0619">21</tspan></text><text transform="rotate(239.37)" x="-223.68549" y="-52.916126" enable-background="new" style="line-height:1.25" xml:space="preserve"><tspan x="-223.68549" y="-52.916126" fill="#ffffff" fill-opacity=".50087" font-family="'-apple-system', BlinkMacSystemFont, 'Segoe UI', Roboto, Oxygen-Sans, Ubuntu, Cantarell, 'Helvetica Neue', sans-serif" font-weight="300" letter-spacing="-.94348px" stroke-width="6.0619">24</tspan></text><text transform="rotate(148.83)" x="-64.198013" y="-310.62234" enable-background="new" style="line-height:1.25" xml:space="preserve"><tspan x="-64.198013" y="-310.62234" fill="#ffffff" fill-opacity=".50087" font-family="'-apple-system', BlinkMacSystemFont, 'Segoe UI', Roboto, Oxygen-Sans, Ubuntu, Cantarell, 'Helvetica Neue', sans-serif" font-weight="300" letter-spacing="-4.196px" stroke-width="6.0619">15</tspan></text><text transform="rotate(120.04)" x="37.280785" y="-308.68573" enable-background="new" style="line-height:1.25" xml:space="preserve"><tspan x="37.280785" y="-308.68573" fill="#ffffff" fill-opacity=".50087" font-family="'-apple-system', BlinkMacSystemFont, 'Segoe UI', Roboto, Oxygen-Sans, Ubuntu, Cantarell, 'Helvetica Neue', sans-serif" font-weight="300" letter-spacing="-4.196px" stroke-width="6.0619">12</tspan></text><text transform="rotate(57.799)" x="211.47942" y="-150.78535" enable-background="new" style="line-height:1.25" xml:space="preserve"><tspan x="211.47942" y="-150.78535" fill="#ffffff" fill-opacity=".50087" font-family="'-apple-system', BlinkMacSystemFont, 'Segoe UI', Roboto, Oxygen-Sans, Ubuntu, Cantarell, 'Helvetica Neue', sans-serif" font-weight="300" stroke-width="6.0619" text-align="center" text-anchor="middle">6</tspan></text></g><text transform="rotate(28.501)" x="205.63757" y="-44.797234" enable-background="new" style="line-height:1.25" xml:space="preserve"><tspan x="205.63757" y="-44.797234" fill="#ffffff" fill-opacity=".50087" font-family="'-apple-system', BlinkMacSystemFont, 'Segoe UI', Roboto, Oxygen-Sans, Ubuntu, Cantarell, 'Helvetica Neue', sans-serif" font-weight="300" stroke-width="6.0619" text-align="center" text-anchor="middle">3</tspan></text><g font-weight="300"><text transform="rotate(.49611)" x="151.03368" y="45.285225" enable-background="new" style="line-height:1.25" xml:space="preserve"><tspan x="151.03368" y="45.285225" fill="#ffffff" fill-opacity=".50087" font-family="'-apple-system', BlinkMacSystemFont, 'Segoe UI', Roboto, Oxygen-Sans, Ubuntu, Cantarell, 'Helvetica Neue', sans-serif" font-weight="300" stroke-width="6.0619" text-align="center" text-anchor="middle">N</tspan></text><text transform="rotate(-30.171)" x="37.658539" y="99.728493" enable-background="new" style="line-height:1.25" xml:space="preserve"><tspan x="37.658539" y="99.728493" fill="#ffffff" fill-opacity=".50087" font-family="'-apple-system', BlinkMacSystemFont, 'Segoe UI', Roboto, Oxygen-Sans, Ubuntu, Cantarell, 'Helvetica Neue', sans-serif" font-weight="300" stroke-width="6.0619">33</tspan></text><text transform="rotate(-58.044)" x="-70.498039" y="101.2091" enable-background="new" style="line-height:1.25" xml:space="preserve"><tspan x="-70.498039" y="101.2091" fill="#ffffff" fill-opacity=".50087" font-family="'-apple-system', BlinkMacSystemFont, 'Segoe UI', Roboto, Oxygen-Sans, Ubuntu, Cantarell, 'Helvetica Neue', sans-serif" font-weight="300" letter-spacing="-1.6883px" stroke-width="6.0619">30</tspan></text></g></g><g transform="translate(-112.98 140.37)" opacity=".99"><text x="13.86202" y="253.8631" fill="#000000" font-family="'-apple-system', BlinkMacSystemFont, 'Segoe UI', Roboto, Oxygen-Sans, Ubuntu, Cantarell, 'Helvetica Neue', sans-serif" font-size="5.3333px" font-weight="300" letter-spacing="0px" word-spacing="0px" style="line-height:1.25" xml:space="preserve"><tspan x="13.86202" y="258.80008"/></text></g><text x="412.58948" y="128.15021" fill="#ffffff" font-family="'-apple-system', BlinkMacSystemFont, 'Segoe UI', Roboto, Oxygen-Sans, Ubuntu, Cantarell, 'Helvetica Neue', sans-serif" font-size="19.863px" font-weight="300" letter-spacing="0px" stroke-width="2.4828" word-spacing="0px" style="line-height:1.25" xml:space="preserve"><tspan x="412.58948" y="146.53683" font-family="'-apple-system', BlinkMacSystemFont, 'Segoe UI', Roboto, Oxygen-Sans, Ubuntu, Cantarell, 'Helvetica Neue', sans-serif" font-size="13.242px" font-weight="300" stroke-width="2.4828" style="line-height:0"/></text><text x="420.5242" y="119.88541" fill="#ffffff" font-family="'-apple-system', BlinkMacSystemFont, 'Segoe UI', Roboto, Oxygen-Sans, Ubuntu, Cantarell, 'Helvetica Neue', sans-serif" font-size="19.863px" font-weight="300" letter-spacing="0px" stroke-width="2.4828" word-spacing="0px" style="line-height:1.25" xml:space="preserve"><tspan x="420.5242" y="138.27203" font-family="'-apple-system', BlinkMacSystemFont, 'Segoe UI', Roboto, Oxygen-Sans, Ubuntu, Cantarell, 'Helvetica Neue', sans-serif" font-size="13.242px" font-weight="300" stroke-width="2.4828" style="line-height:0"/></text></svg>
